<svg xmlns="http://www.w3.org/2000/svg" width="32" height="32" viewBox="0 0 32 32" fill="none">
  <!-- Source database -->
  <ellipse cx="8" cy="8" rx="6" ry="2.5" fill="#3b82f6"/>
  <path d="M2 8v8c0 1.38 2.69 2.5 6 2.5S14 17.38 14 16V8" fill="none" stroke="#3b82f6" stroke-width="1.5"/>
  <ellipse cx="8" cy="16" rx="6" ry="2.5" fill="none" stroke="#3b82f6" stroke-width="1.5"/>
  <path d="M2 12c0 1.38 2.69 2.5 6 2.5S14 13.38 14 12" fill="none" stroke="#3b82f6" stroke-width="1.5"/>

  <!-- Target database -->
  <ellipse cx="24" cy="14" rx="6" ry="2.5" fill="#22c55e"/>
  <path d="M18 14v8c0 1.38 2.69 2.5 6 2.5S30 23.38 30 22v-8" fill="none" stroke="#22c55e" stroke-width="1.5"/>
  <ellipse cx="24" cy="22" rx="6" ry="2.5" fill="none" stroke="#22c55e" stroke-width="1.5"/>
  <path d="M18 18c0 1.38 2.69 2.5 6 2.5S30 19.38 30 18" fill="none" stroke="#22c55e" stroke-width="1.5"/>

  <!-- Arrow -->
  <path d="M13 14h4.5" stroke="#f59e0b" stroke-width="1.8" stroke-linecap="round"/>
  <path d="M16 11.5L18.5 14L16 16.5" stroke="#f59e0b" stroke-width="1.8" stroke-linecap="round" stroke-linejoin="round"/>
</svg>
